# xmcd
#
# Track frame offsets: 
#        150
#        22517
#        43991
#        62466
#        74724
#        101427
#        126341
#        142576
#        155859
#        175505
#        191072
#        209160
#
# Disc length: 3079 seconds
#
# Revision: 0
# Processed by: cddbd v1.5.2PL0 Copyright (c) Steve Scherf et al.
# Submitted via: ExactAudioCopy v0.95b3
#
DISCID=ab0c050c
DTITLE=Chris Holiman - The Sailor's Daughter
DYEAR=2009
DGENRE=Rock
TTITLE0=Ride Through Sky
TTITLE1=Dark Night Tonight
TTITLE2=Out of her Arms
TTITLE3=The Sailor's Daughter
TTITLE4=Two of a Kind
TTITLE5=Things Fall Apart
TTITLE6=Swan Song
TTITLE7=Bartender Blues
TTITLE8=Christmas Lights
TTITLE9=Running This World
TTITLE10=End of the Night
TTITLE11=Silent Now
EXTD=
EXTT0=
EXTT1=
EXTT2=
EXTT3=
EXTT4=
EXTT5=
EXTT6=
EXTT7=
EXTT8=
EXTT9=
EXTT10=
EXTT11=
PLAYORDER=
